<svg class="heroFooter__svg" width="100%" height="10vh" id="svg" viewBox="0 0 1440 600" xmlns="http://www.w3.org/2000/svg" class="transition duration-300 ease-in-out delay-150 heroFooter__svg"><style>
                </style><defs><linearGradient id="gradient" x1="0%" y1="50%" x2="100%" y2="50%"><stop offset="5%" stop-color="#b4ed07"></stop><stop offset="95%" stop-color="#32ded4"></stop></linearGradient></defs><path d="M 0,600 C 0,600 0,200 0,200 C 72.24880382775123,239.08133971291866 144.49760765550246,278.1626794258373 234,249 C 323.50239234449754,219.83732057416267 430.2583732057416,122.43062200956939 533,130 C 635.7416267942584,137.5693779904306 734.4688995215311,250.1148325358851 842,255 C 949.5311004784689,259.8851674641149 1065.866028708134,157.11004784688998 1167,130 C 1268.133971291866,102.88995215311003 1354.066985645933,151.444976076555 1440,200 C 1440,200 1440,600 1440,600 Z" stroke="none" stroke-width="0" fill="url(#gradient)" fill-opacity="0.53" class="transition-all duration-300 ease-in-out delay-150 path-0"></path><style>
                 </style><defs><linearGradient id="gradient" x1="0%" y1="50%" x2="100%" y2="50%"><stop offset="5%" stop-color="#b4ed07"></stop><stop offset="95%" stop-color="#32ded4"></stop></linearGradient></defs><path d="M 0,600 C 0,600 0,400 0,400 C 112.92822966507177,375.68421052631584 225.85645933014354,351.3684210526316 315,370 C 404.14354066985646,388.6315789473684 469.5023923444976,450.2105263157894 547,440 C 624.4976076555024,429.7894736842106 714.133971291866,347.7894736842106 826,351 C 937.866028708134,354.2105263157894 1071.9617224880385,442.63157894736844 1178,465 C 1284.0382775119615,487.36842105263156 1362.0191387559807,443.6842105263158 1440,400 C 1440,400 1440,600 1440,600 Z" stroke="none" stroke-width="0" fill="url(#gradient)" fill-opacity="1" class="transition-all duration-300 ease-in-out delay-150 path-1"></path></svg>